<?xml version="1.0" encoding="UTF-8"?>
<svg id="_レイヤー_1" data-name="レイヤー 1" xmlns="http://www.w3.org/2000/svg" xmlns:xlink="http://www.w3.org/1999/xlink" viewBox="0 0 254 40">
  <defs>
    <style>
      .cls-1 {
        fill: none;
      }

      .cls-2 {
        fill: #b0e0e6;
      }

      .cls-3 {
        clip-path: url(#clippath);
      }
    </style>
    <clipPath id="clippath">
      <rect class="cls-1" width="254" height="40"/>
    </clipPath>
  </defs>
  <g class="cls-3">
    <g>
      <path class="cls-2" d="M22.1,1.35c4.1,0,8.35.9,10.65,2.1v13.35c-2.5-1.25-5.65-2.3-9-2.3-5.1,0-7.85,2.45-7.85,5.8s2.75,5.75,7.85,5.75c3.35,0,6.7-1,9.2-2.4v12.75c-2.35,1.25-6.7,2.25-11,2.25C9.85,38.65,1,30.75,1,20S9.8,1.35,22.1,1.35Z"/>
      <path class="cls-2" d="M48.4,1.9h14.25l13.8,36.2h-16.1l-1.25-4.75h-8.3l-1.4,4.75h-14.8L48.4,1.9ZM56.7,24.25l-1.6-7.35h-.1l-1.6,7.35h3.3Z"/>
      <path class="cls-2" d="M82.05,14.2h-10.1V1.9h35.1v12.3h-10.1v23.9h-14.9V14.2Z"/>
      <path class="cls-2" d="M116.35,1.9h14.25l13.8,36.2h-16.1l-1.25-4.75h-8.3l-1.4,4.75h-14.8L116.35,1.9ZM124.65,24.25l-1.6-7.35h-.1l-1.6,7.35h3.3Z"/>
      <path class="cls-2" d="M146.9,1.9h14.9v23.35h11.2v12.85h-26.1V1.9Z"/>
      <path class="cls-2" d="M195.55,1.35c11.35,0,20.2,8.15,20.2,18.65s-8.85,18.65-20.2,18.65-20.2-8.15-20.2-18.65S184.2,1.35,195.55,1.35ZM195.55,25.85c3.1,0,5.6-2.5,5.6-5.6s-2.5-5.6-5.6-5.6-5.6,2.5-5.6,5.6,2.5,5.6,5.6,5.6Z"/>
      <path class="cls-2" d="M218.45,20.3c0-10.9,8.95-18.95,21.6-18.95,4.8,0,9.2,1.15,12.05,2.6v12.4c-2.9-1.25-7.4-2.45-10.75-2.45-5.3,0-8.05,3-8.05,6.9,0,4.25,3.35,6.8,7,6.8.7,0,1.2-.1,1.5-.2v-1.85h-3.6v-8.1h14.8v17.9c-2.65,1.65-7.35,3.3-13.3,3.3-13.05,0-21.25-7.95-21.25-18.35Z"/>
    </g>
  </g>
</svg>